<svg id="Layer_1" enable-background="new 0 0 512 512" height="512" viewBox="0 0 512 512" width="512" xmlns="http://www.w3.org/2000/svg"><path d="m471.855 512c-8.836 0-16-7.164-16-16v-64c0-26.467-21.533-48-48-48s-48 21.533-48 48c0 44.112-35.888 80-80 80s-80-35.891-80-80.006v-7.994c0-8.836 7.164-16 16-16s16 7.164 16 16v7.994c0 26.471 21.533 48.006 48 48.006s48-21.533 48-48c0-44.112 35.888-80 80-80s80 35.888 80 80v64c0 8.836-7.164 16-16 16z" fill="#fe929f"/><g fill="#ea8692"><path d="m471.855 512c-4.095 0-8.189-1.562-11.313-4.687l-24-24c-6.249-6.248-6.249-16.379 0-22.627 6.248-6.249 16.379-6.249 22.627 0l24 24c10.109 10.109 2.811 27.314-11.314 27.314z"/><path d="m471.855 512c-14.126 0-21.421-17.206-11.313-27.313l24-24c6.248-6.249 16.379-6.249 22.627 0 6.249 6.248 6.249 16.379 0 22.627l-24 24c-3.124 3.124-7.219 4.686-11.314 4.686z"/><path d="m81.385 99.96-69.839 60.036c-30.021-62.573 1.526-139.225 67.877-159.996-14.109 31.321-13.809 68.352 1.962 99.96z"/><path d="m419.344 158.335-70.432-58.785c15.395-31.115 15.992-67.974 1.769-99.55 65.384 20.468 97.489 95.651 68.663 158.335z"/><path d="m431.541 209.938c0 129.412-215.686 230.062-215.686 230.062s-53.922-25.16-107.843-66.507c-52.025-39.848-107.843-97.769-107.843-163.555 0-62.512 49.857-113.425 112.071-115.004 44.732-.981 83.534 23.062 103.616 59.281 20.189-36.413 59.124-60.27 103.573-59.271 64.966 2.133 112.112 54.629 112.112 114.994z"/></g><path d="m431.164 200.642c-4.907 52.262-57.183 98.54-108.991 132.055-64.658 41.828-147.88 41.878-212.543.057-46.427-30.026-103.951-77.154-109.084-132.144 4.781-59.724 55.552-107.666 118.703-105.643 41.606 1.445 77.604 24.976 96.606 59.249 19.002-34.273 55-57.804 96.606-59.249 60.036-1.923 113.729 43.147 118.703 105.675z" fill="#fe929f"/><path d="m112.326 146.667s-34.51 0-57.105 34.509c-8.292 12.664-13.951 60.393 5.341 60.393 17.255 0 12.241-29.496 25.882-43.137 17.254-17.256 69.019-43.138 25.882-51.765z" fill="#ffa4b8"/></svg>